# xmcd
#
# Track frame offsets: 
#        150
#        19681
#        41863
#        63695
#        82029
#        103865
#        122480
#        136020
#        160471
#        178852
#        192512
#        218752
#        230647
#        242530
#        257933
#
# Disc length: 3672 seconds
#
# Revision: 0
# Processed by: cddbd v1.5.2PL0 Copyright (c) Steve Scherf et al.
# Submitted via: ExactAudioCopy v0.99pb5
#
DISCID=dc0e560f
DTITLE=The Jayhawks - Hollywood Town Hall [Expanded Edition]
DYEAR=2011
DGENRE=Country
TTITLE0=Waiting For The Sun
TTITLE1=Crowded In The Wings
TTITLE2=Clouds
TTITLE3=Two Angels
TTITLE4=Take Me With You (When You Go)
TTITLE5=Sister Cry
TTITLE6=Settled Down Like Rain
TTITLE7=Wichita
TTITLE8=Nevada, California
TTITLE9=Martin's Song
TTITLE10=Leave No Gold
TTITLE11=Keith And Quentin
TTITLE12=Up Above My Head
TTITLE13=Warm River
TTITLE14=Mother Trust You To Walk To The Store
EXTD=
EXTT0=
EXTT1=
EXTT2=
EXTT3=
EXTT4=
EXTT5=
EXTT6=
EXTT7=
EXTT8=
EXTT9=
EXTT10=
EXTT11=
EXTT12=
EXTT13=
EXTT14=
PLAYORDER=
